<svg width="30" height="30" viewBox="0 0 30 30" fill="none" xmlns="http://www.w3.org/2000/svg">
<path fill-rule="evenodd" clip-rule="evenodd" d="M16.3803 5.22126L18.6646 9.78469C18.8885 10.2327 19.3206 10.5433 19.8217 10.6152L24.9317 11.3508C26.1942 11.533 26.6966 13.0632 25.7829 13.9399L22.0877 17.4906C21.7246 17.8397 21.5593 18.3416 21.6452 18.8345L22.5172 23.8473C22.732 25.0873 21.4122 26.0334 20.2837 25.4467L15.7165 23.0784C15.2688 22.846 14.7325 22.846 14.2835 23.0784L9.71626 25.4467C8.58779 26.0334 7.26799 25.0873 7.48405 23.8473L8.35481 18.8345C8.44071 18.3416 8.27541 17.8397 7.91227 17.4906L4.2171 13.9399C3.30339 13.0632 3.8058 11.533 5.06833 11.3508L10.1783 10.6152C10.6794 10.5433 11.1128 10.2327 11.3367 9.78469L13.6197 5.22126C14.1846 4.09291 15.8154 4.09291 16.3803 5.22126Z" stroke="#F8CE3D" stroke-width="1.5" stroke-linecap="round" stroke-linejoin="round"/>
<path d="M14.259 4.56622C15.2783 3.54074 16.3825 4.13894 16.8072 4.56622L19.3554 10.3345C21.0543 10.5482 24.7066 10.9757 25.7259 10.9757C26.7452 10.9757 27 12.2575 27 12.8984L23.1777 16.744C22.668 17.2567 22.5406 18.2395 22.5406 18.6667L23.1777 24.435C23.1777 25.4605 21.9035 25.7169 21.2665 25.7169C19.78 25.076 16.6797 23.6659 16.17 23.1532C15.6604 22.6405 15.1083 22.9396 14.8959 23.1532C13.6218 23.7941 10.9462 25.2042 10.4365 25.7169C9.92687 26.2296 8.95005 25.9305 8.52534 25.7169C7.50605 25.2042 7.67594 24.2214 7.88829 23.7941L8.52534 18.6667C9.03499 17.6413 8.31299 16.9576 7.88829 16.744L4.70312 14.1803C3.17419 12.1293 4.49077 11.1893 5.34018 10.9757C6.82665 10.762 9.92699 10.3347 10.4366 10.3347C10.9463 10.3347 11.4984 9.90746 11.7107 9.69382L14.259 4.56622Z" fill="#F8CE3D"/>
</svg>
